<svg xmlns="http://www.w3.org/2000/svg" xmlns:xlink="http://www.w3.org/1999/xlink" width="500" zoomAndPan="magnify" viewBox="0 0 375 374.999991" height="500" preserveAspectRatio="xMidYMid meet" version="1.0"><defs><g/></defs><rect x="-37.5" width="450" fill="#ffffff" y="-37.499999" height="449.999989" fill-opacity="1"/><rect x="-37.5" width="450" fill="#ffffff" y="-37.499999" height="449.999989" fill-opacity="1"/><path fill="#2e6a47" d="M 160.324219 90.308594 C 164.625 84.457031 172.171875 82.90625 178.957031 81.972656 C 178.8125 89.371094 177.175781 97.238281 172.054688 102.886719 C 169.21875 106.132812 165.210938 107.976562 161.234375 109.496094 C 160.96875 103.703125 163.457031 98.382812 166.996094 93.992188 C 162.8125 97.503906 160.0625 102.359375 159.007812 107.710938 C 158.746094 107.917969 158.25 108.296875 157.984375 108.5 C 156.902344 102.417969 156.347656 95.515625 160.324219 90.308594 Z M 160.324219 90.308594 " fill-opacity="1" fill-rule="nonzero"/><path fill="#2e6a47" d="M 148.507812 90.835938 C 151.230469 94.609375 153.800781 98.820312 153.832031 103.617188 C 154.007812 106.980469 152.339844 110.050781 150.703125 112.859375 C 148.597656 109.699219 147.71875 106.042969 147.398438 102.328125 C 146.8125 106.542969 147.777344 110.667969 149.941406 114.292969 C 146.578125 111.484375 142.863281 108.238281 142.367188 103.585938 C 141.839844 98.527344 145.230469 94.285156 148.507812 90.835938 Z M 148.507812 90.835938 " fill-opacity="1" fill-rule="nonzero"/><path fill="#2e6a47" d="M 226.785156 91.917969 C 230.117188 95.308594 233.6875 99.433594 233.042969 104.582031 C 233.191406 109.144531 229.445312 112.214844 226.636719 115.257812 C 227.691406 111.660156 228.1875 107.945312 228.277344 104.230469 C 227.601562 107.625 226.8125 110.988281 225.527344 114.207031 C 219.296875 108.09375 221.8125 97.972656 226.785156 91.917969 Z M 226.785156 91.917969 " fill-opacity="1" fill-rule="nonzero"/><path fill="#2e6a47" d="M 177.964844 95.75 C 185.160156 96.566406 193.4375 99.695312 195.953125 107.15625 C 198.175781 112.1875 196.480469 117.628906 194.8125 122.542969 C 194.519531 117.160156 192.882812 111.867188 189.019531 107.976562 C 191.476562 112.1875 193.027344 116.867188 192.648438 121.8125 C 187.0625 119.703125 182.207031 115.492188 179.984375 109.875 C 178.023438 105.460938 177.933594 100.515625 177.964844 95.75 Z M 177.964844 95.75 " fill-opacity="1" fill-rule="nonzero"/><path fill="#2e6a47" d="M 148.714844 122.777344 C 154.007812 115.113281 163.457031 112.214844 172.203125 110.695312 C 172.875 120.378906 171.238281 130.644531 165.445312 138.628906 C 161.875 143.515625 156.640625 146.851562 150.996094 148.867188 C 150.527344 141.027344 153.1875 133.335938 157.957031 127.164062 C 155.441406 129.796875 152.835938 132.488281 151.199219 135.824219 C 149.035156 140.035156 148.304688 144.773438 147.71875 149.425781 C 144.179688 141.058594 143.417969 130.527344 148.714844 122.777344 Z M 148.714844 122.777344 " fill-opacity="1" fill-rule="nonzero"/><path fill="#2e6a47" d="M 144.472656 152.496094 C 153.65625 155.859375 162.226562 162.207031 166.46875 171.246094 C 168.894531 176.21875 169.394531 181.863281 169.070312 187.304688 C 161.640625 184.90625 156.144531 178.734375 152.808594 171.917969 C 154.621094 180.3125 161.117188 186.425781 168.164062 190.757812 C 160.089844 190.082031 151.609375 187.332031 146.519531 180.636719 C 140.257812 172.648438 141.722656 161.5625 144.472656 152.496094 Z M 144.472656 152.496094 " fill-opacity="1" fill-rule="nonzero"/><path fill="#2e6a47" d="M 199.757812 111.601562 C 208.152344 111.222656 217.394531 111.867188 224.152344 117.511719 C 232.019531 123.945312 233.804688 135.296875 231.582031 144.773438 C 229.59375 136.730469 225 129.210938 217.597656 125.117188 C 223.1875 130.265625 227.371094 136.964844 228.421875 144.597656 C 221.8125 143.484375 215.171875 140.941406 210.550781 135.882812 C 204.203125 129.386719 201.21875 120.40625 199.757812 111.601562 Z M 199.757812 111.601562 " fill-opacity="1" fill-rule="nonzero"/><path fill="#2e6a47" d="M 204.378906 196.78125 C 209.117188 191.164062 215.640625 187.65625 222.191406 184.585938 C 225.585938 194.121094 226.726562 205.851562 220.144531 214.304688 C 214.851562 221.441406 205.664062 223.398438 197.386719 224.628906 C 204.523438 220.476562 211.046875 214.507812 213.183594 206.257812 C 209.410156 212.898438 203.734375 218.457031 196.507812 221.207031 C 195.835938 212.460938 198.175781 203.21875 204.378906 196.78125 Z M 204.378906 196.78125 " fill-opacity="1" fill-rule="nonzero"/><path fill="#2e6a47" d="M 121.917969 121.109375 C 125.515625 115.699219 132.449219 112.976562 138.796875 113.941406 C 142.21875 114.5 145.554688 115.640625 148.800781 116.808594 C 145.113281 124.238281 139 131.082031 130.695312 133.101562 C 127.15625 134.273438 123.382812 133.773438 119.84375 132.984375 C 122.53125 128.625 126.363281 125.234375 130.695312 122.570312 C 124.84375 123.976562 120.457031 128.335938 117.152344 133.160156 C 118.351562 129.007812 119.375 124.675781 121.917969 121.109375 Z M 121.917969 121.109375 " fill-opacity="1" fill-rule="nonzero"/><path fill="#2e6a47" d="M 129.203125 197.863281 C 126.453125 191.253906 129.347656 183.882812 133.269531 178.382812 C 137.566406 181.101562 140.816406 185.316406 142.921875 189.90625 C 145.347656 195.261719 144.765625 201.402344 143.066406 206.84375 C 138.972656 203.480469 136.164062 198.886719 135.257812 193.652344 C 135.082031 199.296875 138.152344 204.035156 141.195312 208.511719 C 136.25 206.347656 131.277344 203.101562 129.203125 197.863281 Z M 129.203125 197.863281 " fill-opacity="1" fill-rule="nonzero"/><path fill="#2e6a47" d="M 172.667969 130.675781 C 175.683594 125.234375 182 123.039062 187.792969 121.957031 C 188.113281 127.808594 187.527344 134.039062 184.164062 139.011719 C 181.941406 142.433594 178.34375 144.597656 174.71875 146.324219 C 174.660156 141.613281 176.152344 137.109375 178.34375 132.984375 C 174.835938 136.875 173.402344 141.9375 172.726562 147.027344 C 171.207031 141.789062 169.804688 135.734375 172.667969 130.675781 Z M 172.667969 130.675781 " fill-opacity="1" fill-rule="nonzero"/><path fill="#2e6a47" d="M 231.667969 189.527344 C 234.828125 183.910156 240.09375 179.816406 245.769531 176.949219 C 248.019531 183.441406 249.921875 191.046875 246.441406 197.484375 C 243.164062 203.390625 236.496094 206.113281 230.175781 207.488281 C 234.800781 203.566406 239.246094 199.0625 240.648438 192.949219 C 237.988281 197.835938 234.566406 202.574219 229.269531 204.882812 C 228.6875 199.675781 228.949219 194.148438 231.667969 189.527344 Z M 231.667969 189.527344 " fill-opacity="1" fill-rule="nonzero"/><path fill="#2e6a47" d="M 115.042969 154.398438 C 118.085938 144.246094 127.679688 137.871094 137.042969 134.066406 C 139.851562 143.457031 141.109375 153.753906 137.890625 163.230469 C 135.667969 170.074219 130.664062 175.722656 124.667969 179.582031 C 124.582031 179.027344 124.433594 177.945312 124.375 177.386719 C 123.03125 169.871094 123.878906 162.175781 126.421875 155.011719 C 124.40625 158.199219 122.386719 161.535156 121.539062 165.277344 C 120.28125 170.515625 121.101562 175.894531 121.363281 181.191406 C 116.246094 173.351562 112.5 163.785156 115.042969 154.398438 Z M 115.042969 154.398438 " fill-opacity="1" fill-rule="nonzero"/><path fill="#2e6a47" d="M 239.917969 136.523438 C 248.109375 140.035156 256.679688 145.359375 259.457031 154.367188 C 262.5 162.96875 258.316406 171.832031 253.78125 179.054688 C 253.957031 174.40625 254.515625 169.695312 253.726562 165.101562 C 253.167969 161.886719 251.53125 159.046875 249.980469 156.210938 C 252.351562 163.054688 252.757812 170.515625 250.828125 177.535156 C 245.796875 173.820312 241.207031 169.140625 239.1875 163.085938 C 236.144531 154.515625 237.316406 145.066406 239.917969 136.523438 Z M 239.917969 136.523438 " fill-opacity="1" fill-rule="nonzero"/><path fill="#2e6a47" d="M 197.476562 125.964844 C 200.867188 128.625 204.230469 132.136719 204.40625 136.699219 C 204.789062 141.085938 201.746094 144.714844 198.734375 147.550781 C 199.375 145.386719 200.222656 143.28125 200.429688 141.027344 C 200.546875 139.449219 200.136719 137.929688 199.785156 136.40625 C 200.046875 139.886719 199.316406 143.425781 197.5625 146.46875 C 195.660156 144.128906 194.082031 141.378906 193.90625 138.28125 C 193.527344 133.890625 195.222656 129.621094 197.476562 125.964844 Z M 197.476562 125.964844 " fill-opacity="1" fill-rule="nonzero"/><path fill="#2e6a47" d="M 212.304688 160.453125 C 217.773438 153.722656 225.964844 149.714844 234.273438 147.699219 C 235.324219 156.0625 235.648438 165.484375 230.175781 172.503906 C 224.621094 179.785156 214.734375 181.601562 206.074219 181.101562 C 213.621094 178.148438 220.671875 172.972656 223.625 165.132812 C 219.617188 171.363281 213.417969 175.808594 206.367188 178.03125 C 206.308594 171.742188 208.238281 165.367188 212.304688 160.453125 Z M 212.304688 160.453125 " fill-opacity="1" fill-rule="nonzero"/><path fill="#2e6a47" d="M 191.097656 81.003906 C 191.769531 88.085938 194.082031 95.164062 198.675781 100.664062 C 202.449219 105.460938 208.238281 108.0625 214.089844 109.175781 C 213.679688 102.738281 210.050781 97.238281 205.722656 92.707031 C 211.808594 96.273438 215.140625 102.652344 217.074219 109.203125 C 218.183594 102.066406 218.039062 93.875 212.976562 88.171875 C 207.566406 82.058594 198.820312 80.976562 191.097656 81.003906 Z M 191.097656 81.003906 " fill-opacity="1" fill-rule="nonzero"/><path fill="#2e6a47" d="M 251.675781 130.207031 C 253.375 132.957031 253.929688 136.171875 254.777344 139.246094 C 256.472656 132.691406 256.472656 124.96875 251.851562 119.589844 C 247.261719 114.089844 239.65625 113.066406 232.925781 112.683594 C 233.628906 118.273438 234.652344 124.035156 237.839844 128.800781 C 241.03125 133.980469 246.527344 137.34375 252.4375 138.453125 C 252.058594 132.78125 249.160156 127.835938 245.535156 123.625 C 247.785156 125.613281 250.15625 127.574219 251.675781 130.207031 Z M 251.675781 130.207031 " fill-opacity="1" fill-rule="nonzero"/><path fill="#2e6a47" d="M 165.09375 215.035156 C 162.8125 212.636719 161.378906 209.625 159.917969 206.699219 C 163.921875 212.988281 170.035156 217.785156 177.234375 219.890625 C 176.96875 213.601562 175.300781 207.109375 171.121094 202.222656 C 165.824219 195.640625 157.957031 191.925781 150 189.644531 C 148.363281 197.980469 148.390625 207.605469 153.917969 214.566406 C 159.449219 221.46875 168.867188 223.3125 177.292969 223.078125 C 173.019531 220.796875 168.398438 218.75 165.09375 215.035156 Z M 165.09375 215.035156 " fill-opacity="1" fill-rule="nonzero"/><path fill="#2e6a47" d="M 202.007812 181.511719 C 202.007812 186.75 197.648438 190.375 193.378906 192.539062 C 193.410156 202.019531 193.378906 211.464844 193.410156 220.941406 C 193.46875 222.84375 193.261719 225.097656 191.449219 226.179688 C 189.285156 227.144531 186.945312 226.96875 184.632812 226.589844 C 182.964844 226.324219 181.648438 225.007812 181.355469 223.34375 C 181.152344 222.230469 181.035156 221.089844 181.066406 219.949219 C 181.035156 210.792969 181.152344 201.667969 181.066406 192.511719 C 176.441406 190.230469 172.113281 186.074219 172.289062 180.546875 C 172.289062 171.390625 172.171875 162.234375 172.320312 153.109375 C 172.347656 151.851562 173.371094 150.859375 174.601562 150.859375 C 175.828125 150.859375 176.851562 151.851562 176.882812 153.082031 C 177.058594 160.070312 176.882812 167.0625 176.941406 174.054688 C 176.941406 175.046875 177.757812 175.867188 178.753906 175.867188 C 179.75 175.867188 180.566406 175.046875 180.566406 174.054688 L 180.566406 153.316406 C 180.566406 151.96875 181.679688 150.859375 183.023438 150.859375 C 184.371094 150.859375 185.480469 151.941406 185.480469 153.316406 C 185.511719 158.289062 185.570312 169.460938 185.628906 173.964844 C 185.628906 175.046875 186.503906 175.894531 187.585938 175.894531 C 188.671875 175.894531 189.546875 175.019531 189.546875 173.9375 L 189.546875 152.789062 C 189.546875 151.734375 190.394531 150.886719 191.449219 150.886719 C 192.5 150.886719 193.351562 151.734375 193.351562 152.789062 L 193.351562 173.90625 C 193.351562 175.019531 194.257812 175.894531 195.339844 175.894531 C 196.449219 175.894531 197.328125 174.988281 197.328125 173.90625 L 197.328125 153.199219 C 197.328125 151.941406 198.351562 150.886719 199.640625 150.886719 C 200.898438 150.886719 201.921875 151.910156 201.949219 153.167969 C 202.066406 162.585938 202.039062 172.066406 202.007812 181.511719 Z M 202.007812 181.511719 " fill-opacity="1" fill-rule="nonzero"/><g fill="#2e6a47" fill-opacity="1"><g transform="translate(80.121889, 265.268668)"><g><path d="M 16.71875 -22.125 L 22.09375 -22.125 L 22.09375 0 L 16.71875 0 L 7.734375 -13.921875 L 7.734375 0 L 2.359375 0 L 2.359375 -22.125 L 7.734375 -22.125 L 16.71875 -8.203125 Z M 16.71875 -22.125 "/></g></g></g><g fill="#2e6a47" fill-opacity="1"><g transform="translate(108.966928, 265.268668)"><g><path d="M 2.265625 -8.890625 L 2.265625 -22.0625 L 7.640625 -22.0625 L 7.640625 -8.890625 C 7.640625 -7.566406 7.960938 -6.550781 8.609375 -5.84375 C 9.253906 -5.132812 10.207031 -4.78125 11.46875 -4.78125 C 12.726562 -4.78125 13.691406 -5.132812 14.359375 -5.84375 C 15.023438 -6.550781 15.359375 -7.566406 15.359375 -8.890625 L 15.359375 -22.0625 L 20.734375 -22.0625 L 20.734375 -8.890625 C 20.734375 -6.941406 20.273438 -5.257812 19.359375 -3.84375 C 18.453125 -2.4375 17.300781 -1.40625 15.90625 -0.75 C 14.519531 -0.101562 13.007812 0.21875 11.375 0.21875 C 8.820312 0.21875 6.664062 -0.578125 4.90625 -2.171875 C 3.144531 -3.765625 2.265625 -6.003906 2.265625 -8.890625 Z M 2.265625 -8.890625 "/></g></g></g><g fill="#2e6a47" fill-opacity="1"><g transform="translate(136.33519, 265.268668)"><g><path d="M 0.84375 -17.96875 L 0.84375 -22.0625 L 18.25 -22.0625 L 18.25 -17.96875 L 12.21875 -17.96875 L 12.21875 0 L 6.84375 0 L 6.84375 -17.96875 Z M 0.84375 -17.96875 "/></g></g></g><g fill="#2e6a47" fill-opacity="1"><g transform="translate(159.838714, 265.268668)"><g><path d="M 7.734375 -8.578125 L 7.734375 0 L 2.359375 0 L 2.359375 -22.0625 L 11.0625 -22.0625 C 13.613281 -22.0625 15.601562 -21.398438 17.03125 -20.078125 C 18.457031 -18.753906 19.171875 -17.160156 19.171875 -15.296875 C 19.171875 -14.023438 18.78125 -12.78125 18 -11.5625 C 17.226562 -10.34375 15.960938 -9.484375 14.203125 -8.984375 L 19.609375 0 L 13.328125 0 L 8.359375 -8.578125 Z M 7.734375 -17.96875 L 7.734375 -12.65625 L 11.0625 -12.65625 C 11.875 -12.65625 12.515625 -12.894531 12.984375 -13.375 C 13.460938 -13.863281 13.703125 -14.5 13.703125 -15.28125 C 13.703125 -16.070312 13.457031 -16.71875 12.96875 -17.21875 C 12.488281 -17.71875 11.851562 -17.96875 11.0625 -17.96875 Z M 7.734375 -17.96875 "/></g></g></g><g fill="#2e6a47" fill-opacity="1"><g transform="translate(185.227474, 265.268668)"><g><path d="M 2.359375 0 L 2.359375 -22.0625 L 7.734375 -22.0625 L 7.734375 0 Z M 2.359375 0 "/></g></g></g><g fill="#2e6a47" fill-opacity="1"><g transform="translate(199.713268, 265.268668)"><g><path d="M 19.171875 -15.296875 C 19.171875 -13.816406 18.632812 -12.382812 17.5625 -11 C 17 -10.28125 16.15625 -9.695312 15.03125 -9.25 C 13.914062 -8.800781 12.59375 -8.578125 11.0625 -8.578125 L 7.734375 -8.578125 L 7.734375 0 L 2.359375 0 L 2.359375 -22.0625 L 11.0625 -22.0625 C 13.613281 -22.0625 15.601562 -21.398438 17.03125 -20.078125 C 18.457031 -18.753906 19.171875 -17.160156 19.171875 -15.296875 Z M 7.734375 -12.65625 L 11.0625 -12.65625 C 11.875 -12.65625 12.515625 -12.894531 12.984375 -13.375 C 13.460938 -13.863281 13.703125 -14.5 13.703125 -15.28125 C 13.703125 -16.070312 13.457031 -16.71875 12.96875 -17.21875 C 12.488281 -17.71875 11.851562 -17.96875 11.0625 -17.96875 L 7.734375 -17.96875 Z M 7.734375 -12.65625 "/></g></g></g><g fill="#2e6a47" fill-opacity="1"><g transform="translate(224.159412, 265.268668)"><g><path d="M 2.359375 -22.0625 L 7.734375 -22.0625 L 7.734375 -4.078125 L 14.421875 -4.078125 L 14.421875 0 L 2.359375 0 Z M 2.359375 -22.0625 "/></g></g></g><g fill="#2e6a47" fill-opacity="1"><g transform="translate(243.609675, 265.268668)"><g><path d="M 16.375 0 L 15.140625 -3.703125 L 7.234375 -3.703125 L 6 0 L 0.28125 0 L 7.953125 -22.125 L 14.484375 -22.125 L 22.125 0 Z M 8.578125 -7.796875 L 13.796875 -7.796875 L 11.1875 -15.640625 Z M 8.578125 -7.796875 "/></g></g></g><g fill="#2e6a47" fill-opacity="1"><g transform="translate(270.412375, 265.268668)"><g><path d="M 16.71875 -22.125 L 22.09375 -22.125 L 22.09375 0 L 16.71875 0 L 7.734375 -13.921875 L 7.734375 0 L 2.359375 0 L 2.359375 -22.125 L 7.734375 -22.125 L 16.71875 -8.203125 Z M 16.71875 -22.125 "/></g></g></g></svg>